<svg width="226" height="113" viewBox="0 0 226 113" fill="none" xmlns="http://www.w3.org/2000/svg">
<rect x="0.5" y="0.5" width="225" height="112" rx="7.5" stroke="#E0E0E0"/>
<path d="M45.2001 90.4001C63.9226 90.4001 79.1002 75.2226 79.1002 56.5001C79.1002 37.7776 63.9226 22.6 45.2001 22.6C26.4776 22.6 11.3 37.7776 11.3 56.5001C11.3 75.2226 26.4776 90.4001 45.2001 90.4001Z" fill="url(#paint0_radial_43_21)"/>
<path d="M39.5501 39.55L50.8501 50.85L45.2001 67.8L33.9001 62.15L39.5501 39.55Z" fill="white"/>
<path d="M45.2001 48.59C47.0723 48.59 48.5901 47.0723 48.5901 45.2C48.5901 43.3278 47.0723 41.81 45.2001 41.81C43.3278 41.81 41.8101 43.3278 41.8101 45.2C41.8101 47.0723 43.3278 48.59 45.2001 48.59Z" fill="white"/>
<path d="M200.575 33.9001H93.2251C91.6649 33.9001 90.4001 35.1649 90.4001 36.7251C90.4001 38.2853 91.6649 39.5501 93.2251 39.5501H200.575C202.135 39.5501 203.4 38.2853 203.4 36.7251C203.4 35.1649 202.135 33.9001 200.575 33.9001Z" fill="#757575"/>
<path d="M172.325 50.8501H93.2251C91.6649 50.8501 90.4001 52.1149 90.4001 53.6751C90.4001 55.2353 91.6649 56.5001 93.2251 56.5001H172.325C173.885 56.5001 175.15 55.2353 175.15 53.6751C175.15 52.1149 173.885 50.8501 172.325 50.8501Z" fill="#BDBDBD"/>
<path d="M189.275 67.8002H93.2251C91.6649 67.8002 90.4001 69.065 90.4001 70.6252C90.4001 72.1854 91.6649 73.4502 93.2251 73.4502H189.275C190.835 73.4502 192.1 72.1854 192.1 70.6252C192.1 69.065 190.835 67.8002 189.275 67.8002Z" fill="#E0E0E0"/>
<circle cx="119.5" cy="90.5" r="4.5" fill="#10D118"/>
<circle cx="133.5" cy="90.5" r="4.5" fill="#2E7D32" fill-opacity="0.65"/>
<circle cx="148.5" cy="90.5" r="4.5" fill="#2E7D32" fill-opacity="0.43"/>
<defs>
<radialGradient id="paint0_radial_43_21" cx="0" cy="0" r="1" gradientUnits="userSpaceOnUse" gradientTransform="translate(3401.31 3412.61) scale(3390.01)">
<stop stop-color="#4CAF50"/>
<stop offset="1" stop-color="#2E7D32"/>
</radialGradient>
</defs>
</svg>
